<?xml version="1.0" encoding="UTF-8"?><svg id="a" xmlns="http://www.w3.org/2000/svg" xmlns:xlink="http://www.w3.org/1999/xlink" viewBox="0 0 701.432 701.432"><defs><style>.c{fill:url(#b);}.c,.d,.e{stroke-width:0px;}.d{fill:#41b883;}.e{fill:#34495e;}</style><radialGradient id="b" cx="144.504" cy="352.023" fx="144.504" fy="352.023" r="329.116" gradientTransform="translate(196.683 -23.224) scale(1.066)" gradientUnits="userSpaceOnUse"><stop offset="0" stop-color="#f2f2f2"/><stop offset="1" stop-color="#e6e6e6"/></radialGradient></defs><rect class="c" x=".505" y=".505" width="700.421" height="700.421" rx="141.688" ry="141.688"/><path class="d" d="m443.705,284.484l-37.21,64.449c33.343,19.293,55.792,55.319,55.792,96.612,0,61.619-49.952,111.571-111.571,111.571s-111.571-49.952-111.571-111.571c0-41.293,22.45-77.319,55.792-96.612l-37.21-64.45c-55.573,32.154-92.963,92.239-92.963,161.061,0,102.698,83.253,185.952,185.952,185.952s185.952-83.254,185.952-185.952c0-68.822-37.391-128.907-92.963-161.061Z"/><path class="e" d="m393.659,445.545c0,23.717-19.226,42.944-42.944,42.944s-42.944-19.226-42.944-42.944c0-15.893,8.641-29.76,21.475-37.186l-34.31-59.426c-33.343,19.293-55.792,55.319-55.792,96.612,0,61.619,49.952,111.571,111.571,111.571s111.571-49.952,111.571-111.571c0-41.293-22.45-77.319-55.792-96.612l-34.31,59.426c12.834,7.426,21.474,21.292,21.474,37.186Z"/><path class="d" d="m395.966,69.935l-45.25,78.376-45.25-78.376h-150.69s195.94,339.382,195.94,339.382l195.94-339.382h-150.69Z"/><path class="e" d="m395.966,69.935l-45.25,78.376-45.25-78.376h-72.314s117.564,203.625,117.564,203.625l117.564-203.625h-72.314Z"/></svg>