<?xml version="1.0" encoding="UTF-8"?><svg id="a" xmlns="http://www.w3.org/2000/svg" xmlns:xlink="http://www.w3.org/1999/xlink" viewBox="0 0 701.432 701.432"><defs><style>.c{fill:url(#b);}.c,.d,.e{stroke-width:0px;}.d{fill:#41b883;}.e{fill:#34495e;}</style><radialGradient id="b" cx="194.292" cy="352.023" fx="194.292" fy="352.023" r="329.116" gradientTransform="translate(143.612 -23.224) scale(1.066)" gradientUnits="userSpaceOnUse"><stop offset="0" stop-color="#f2f2f2"/><stop offset="1" stop-color="#e6e6e6"/></radialGradient></defs><rect class="c" x=".505" y=".505" width="700.421" height="700.421" rx="141.688" ry="141.688"/><path class="d" d="m162.936,477.617c-37.885,0-68.597-30.712-68.597-68.598s30.712-68.597,68.597-68.597c18.943,0,36.092,7.678,48.506,20.092l32.337-32.337c-20.689-20.69-49.272-33.486-80.843-33.486-63.142,0-114.329,51.187-114.329,114.329s51.187,114.329,114.329,114.329c31.571,0,60.153-12.797,80.843-33.486l-32.337-32.337c-12.414,12.414-29.563,20.092-48.506,20.092Z"/><path class="e" d="m94.339,409.02c0,37.885,30.712,68.598,68.597,68.598,18.943,0,36.092-7.678,48.506-20.092l-29.836-29.836c-4.778,4.778-11.379,7.733-18.67,7.733-14.582,0-26.403-11.821-26.403-26.403s11.821-26.403,26.403-26.403c7.291,0,13.892,2.955,18.67,7.733l29.836-29.836c-12.414-12.414-29.563-20.092-48.506-20.092-37.885,0-68.597,30.712-68.597,68.597Z"/><path class="d" d="m410.289,309.994l-22.878,39.626c20.5,11.862,34.303,34.012,34.303,59.4,0,37.885-30.712,68.597-68.598,68.597s-68.597-30.712-68.597-68.597c0-25.388,13.803-47.538,34.303-59.4l-22.878-39.626c-34.168,19.769-57.157,56.712-57.157,99.025,0,63.142,51.187,114.329,114.329,114.329s114.329-51.187,114.329-114.329c0-42.314-22.989-79.256-57.157-99.025Z"/><path class="e" d="m379.52,409.02c0,14.582-11.821,26.403-26.403,26.403s-26.403-11.821-26.403-26.403c0-9.772,5.313-18.297,13.203-22.863l-21.095-36.537c-20.5,11.862-34.303,34.012-34.303,59.4,0,37.885,30.712,68.597,68.597,68.597s68.598-30.712,68.598-68.597c0-25.388-13.803-47.538-34.303-59.4l-21.095,36.537c7.891,4.566,13.203,13.091,13.203,22.863Z"/><path class="d" d="m380.938,178.083l-27.821,48.188-27.821-48.188h-92.649s120.47,208.663,120.47,208.663l120.47-208.663h-92.649Z"/><path class="e" d="m380.938,178.083l-27.821,48.188-27.821-48.188h-44.461s72.282,125.195,72.282,125.195l72.282-125.195h-44.461Z"/><polygon class="e" points="652.825 435.423 585.091 435.423 585.091 294.691 539.36 294.691 539.36 477.617 585.091 477.617 585.091 477.617 652.825 477.617 652.825 435.423"/><polygon class="d" points="652.825 477.617 539.36 477.617 539.36 294.691 493.628 294.691 493.628 523.349 539.36 523.349 539.36 523.348 652.825 523.348 652.825 477.617"/></svg>